<?xml version="1.0" standalone="no"?>
<!DOCTYPE svg PUBLIC "-//W3C//DTD SVG 20010904//EN"
 "http://www.w3.org/TR/2001/REC-SVG-20010904/DTD/svg10.dtd">
<svg version="1.0" xmlns="http://www.w3.org/2000/svg"
 width="1080.000000pt" height="1080.000000pt" viewBox="0 0 1080.000000 1080.000000"
 preserveAspectRatio="xMidYMid meet">

<g transform="translate(0.000000,1080.000000) scale(0.100000,-0.100000)"
fill="#000000" stroke="none">
<path d="M2592 5978 c-18 -9 -22 -17 -17 -39 7 -32 -15 -49 -63 -49 -16 0 -48
-6 -70 -14 -55 -20 -189 -122 -208 -159 -9 -16 -18 -63 -21 -103 -6 -71 -7
-74 -32 -74 l-25 0 22 -16 c18 -13 22 -24 22 -72 -1 -49 -5 -62 -31 -90 -22
-25 -35 -31 -50 -27 -32 10 -104 -22 -140 -63 -45 -50 -70 -113 -72 -178 l-2
-55 -95 6 c-52 3 -114 8 -137 11 -43 5 -43 5 -29 32 7 15 16 43 20 62 3 19 8
46 11 59 8 44 -16 124 -46 152 -26 24 -28 30 -18 58 12 35 24 38 57 15 28 -19
28 -37 0 -57 -19 -13 -20 -16 -6 -16 22 -1 50 28 44 45 -3 7 2 18 12 23 16 9
16 11 0 28 -14 15 -15 26 -7 63 23 102 32 130 45 141 16 13 19 65 4 74 -5 3
-6 13 -1 23 37 76 43 93 38 107 -10 24 -56 37 -97 28 -34 -9 -35 -10 -32 -51
4 -41 3 -42 -28 -42 -17 0 -44 -7 -59 -15 -31 -15 -101 -92 -101 -109 0 -5
-12 -23 -27 -39 -26 -27 -28 -34 -28 -117 0 -101 -13 -122 -70 -113 -23 4 -35
-1 -53 -19 -31 -34 -62 -128 -69 -211 -6 -63 -8 -68 -27 -64 -12 3 -47 11 -78
17 -32 6 -58 15 -58 19 0 5 7 25 15 44 18 43 20 138 3 155 -15 15 20 85 40 77
8 -3 18 -5 23 -5 16 0 10 -39 -8 -49 -10 -6 -13 -11 -7 -11 17 0 64 62 56 74
-6 10 -18 133 -25 266 -2 36 -7 47 -27 57 -46 23 -60 17 -60 -26 0 -34 -3 -39
-27 -44 -50 -11 -82 -99 -86 -237 -2 -49 -4 -55 -25 -58 -27 -4 -50 -37 -73
-105 -10 -29 -22 -53 -27 -55 -16 -5 -62 58 -62 86 0 30 75 108 137 142 78 43
-93 -18 -198 -71 -171 -85 -169 -191 6 -268 28 -12 59 -26 70 -31 226 -100
966 -234 1654 -299 92 -9 73 -15 279 80 35 16 65 29 67 29 2 0 46 20 97 43 51
24 100 46 108 50 8 3 -12 6 -45 6 -33 1 -110 4 -172 8 l-112 6 16 31 c9 17 18
65 21 107 4 66 1 84 -18 123 -23 44 -23 46 -5 65 9 11 15 27 12 35 -4 9 3 16
19 20 33 9 30 26 -13 72 -53 55 -73 125 -70 241 2 75 5 93 17 93 15 0 29 17
62 78 17 29 17 35 3 62 -8 16 -18 31 -23 33 -19 12 -79 15 -100 5z m-9 -331
c-5 -54 -2 -71 21 -120 15 -31 31 -59 37 -62 5 -4 13 -15 19 -25 9 -17 8 -18
-17 -9 -44 15 -66 36 -59 54 8 23 -11 54 -40 65 -28 11 -100 118 -87 130 10
10 115 38 124 34 4 -2 4 -32 2 -67z m-888 -14 c-4 -10 -12 -55 -19 -99 -10
-78 -12 -81 -33 -73 -14 5 -26 22 -32 46 -18 62 -14 79 27 112 42 34 68 41 57
14z m-544 -136 c10 -39 -2 -74 -22 -62 -16 10 -22 96 -8 123 l13 27 3 -25 c2
-14 8 -42 14 -63z m1277 0 c23 -15 42 -30 42 -34 0 -4 -10 -17 -22 -30 -18
-19 -32 -23 -85 -23 l-64 0 7 63 c4 34 11 70 16 81 9 17 11 17 36 -6 15 -13
46 -36 70 -51z m-898 -79 c0 -27 -41 -88 -59 -88 -10 0 -24 -12 -32 -26 l-14
-26 -8 38 c-5 24 -4 40 2 42 33 11 91 65 91 85 0 18 2 19 10 7 5 -8 10 -23 10
-32z m1138 -47 c-3 -22 -7 -26 -33 -23 -16 1 -50 4 -75 6 -54 5 -60 19 -29 70
l21 36 60 -32 c51 -27 59 -35 56 -57z m-1628 55 c0 -8 -12 -38 -27 -67 -26
-50 -28 -52 -31 -26 -2 15 7 45 19 67 23 41 39 51 39 26z m325 -45 c3 -6 -7
-23 -23 -39 -22 -22 -31 -43 -35 -82 -4 -29 -4 -57 -1 -61 2 -5 20 -11 38 -15
33 -6 34 -7 24 -37 -16 -48 -23 -53 -67 -49 -49 5 -56 21 -46 101 15 120 80
229 110 182z m1045 4 c0 -22 -44 -83 -69 -98 -36 -21 -54 -51 -47 -75 4 -12
-6 -29 -30 -53 l-36 -34 5 102 c6 112 16 140 50 148 62 13 127 18 127 10z
m-1480 -35 c-27 -38 -46 -50 -30 -19 18 33 31 49 42 49 5 0 0 -13 -12 -30z
m702 -41 c22 -42 23 -99 2 -170 -22 -73 -26 -77 -82 -72 -52 6 -82 23 -39 23
31 0 33 8 10 48 -24 42 -13 63 28 52 18 -5 35 -7 38 -5 2 3 -1 33 -7 66 -18
96 13 132 50 58z m-551 7 c8 -17 8 -39 0 -78 -16 -74 -29 -91 -65 -82 -32 8
-41 24 -32 60 6 23 10 25 39 19 29 -6 30 -6 13 7 -15 12 -17 21 -12 44 14 56
40 69 57 30z m309 -35 c0 -36 -4 -51 -16 -55 -14 -5 -16 -1 -10 25 3 17 6 42
6 55 0 13 5 24 10 24 6 0 10 -22 10 -49z m-467 19 c-6 -22 -21 -35 -30 -26 -5
5 24 46 33 46 1 0 0 -9 -3 -20z m1713 -11 c49 -46 56 -157 14 -238 l-20 -41
-74 0 c-40 0 -101 3 -135 6 l-61 7 0 41 c0 63 9 84 31 79 14 -4 19 0 19 15 0
12 -4 23 -10 27 -9 6 48 95 62 95 7 0 21 -47 32 -111 6 -35 40 -78 52 -66 4 3
2 34 -4 69 -6 35 -14 83 -18 107 l-6 44 47 -5 c29 -4 55 -14 71 -29z m-1685
-15 c-5 -16 -10 -21 -10 -12 -1 18 10 51 15 45 2 -1 -1 -16 -5 -33z m1176 20
c4 -10 -13 -35 -52 -74 -59 -60 -68 -90 -25 -90 14 0 20 -7 20 -22 0 -13 7
-35 14 -50 l15 -28 -68 0 c-42 0 -74 5 -86 14 -18 13 -19 18 -7 76 8 34 24 79
37 100 44 70 136 115 152 74z m-554 -56 c4 -29 2 -38 -9 -38 -21 0 -28 27 -15
57 14 31 16 29 24 -19z m-678 -6 c4 -44 -19 -36 -23 7 -2 23 0 32 9 29 6 -2
13 -19 14 -36z m545 14 c0 -3 -4 -8 -10 -11 -5 -3 -10 -1 -10 4 0 6 5 11 10
11 6 0 10 -2 10 -4z m666 -70 c-14 -35 -38 -47 -51 -26 -3 5 9 28 27 51 37 46
49 34 24 -25z m84 30 c0 -43 -14 -76 -31 -76 -23 0 -24 10 -2 55 17 36 33 46
33 21z m-1230 -26 c0 -5 -7 -7 -15 -4 -8 4 -15 8 -15 10 0 2 7 4 15 4 8 0 15
-4 15 -10z m500 -60 c0 -37 -2 -40 -27 -39 -53 1 -61 10 -46 47 11 26 19 32
43 32 28 0 30 -2 30 -40z m872 -30 c-3 -67 -5 -70 -28 -70 -21 0 -23 3 -14 19
5 11 10 34 10 52 0 18 7 41 17 51 9 10 17 18 17 18 1 0 0 -31 -2 -70z m-162 1
c0 -12 -20 -25 -27 -18 -7 7 6 27 18 27 5 0 9 -4 9 -9z m28 -69 c-27 -5 -30 1
-17 34 l11 29 12 -30 c11 -27 11 -30 -6 -33z"/>
<path d="M7875 5912 c-11 -3 -28 -10 -38 -17 -10 -7 -26 -11 -36 -8 -10 2 -26
-3 -35 -12 -9 -9 -28 -18 -43 -20 -15 -1 -35 -14 -45 -28 -11 -14 -25 -24 -32
-21 -7 3 -21 -4 -31 -16 -10 -11 -15 -20 -10 -20 4 0 2 -7 -5 -15 -7 -8 -16
-13 -20 -10 -11 7 -43 -32 -36 -43 3 -6 -5 -19 -20 -29 -14 -10 -27 -31 -28
-45 -2 -15 -11 -34 -20 -44 -10 -9 -15 -25 -13 -35 3 -10 -2 -27 -10 -39 -10
-14 -13 -32 -9 -56 4 -21 3 -34 -4 -34 -5 0 -10 -13 -10 -30 0 -16 5 -30 10
-30 6 0 8 -15 4 -40 -5 -28 -2 -43 9 -54 8 -8 12 -25 10 -39 -3 -16 2 -31 16
-44 12 -11 19 -26 17 -34 -6 -17 12 -43 37 -52 10 -4 17 -14 15 -24 -2 -10 10
-25 29 -37 18 -12 30 -26 28 -33 -2 -7 14 -20 36 -29 21 -10 39 -23 39 -30 0
-13 22 -24 47 -24 8 0 26 -9 40 -20 17 -13 34 -18 46 -14 11 4 23 1 28 -7 11
-18 202 -20 236 -2 14 7 34 11 43 8 9 -3 30 5 45 17 15 12 37 23 48 23 11 1
27 11 36 23 9 11 25 22 36 24 11 2 26 16 33 31 7 15 19 27 26 27 17 0 48 35
39 43 -3 4 6 18 20 31 15 14 27 32 27 41 0 9 9 28 20 42 12 15 18 34 15 44 -3
10 1 29 10 42 10 16 13 34 9 55 -4 21 -3 32 5 32 14 0 15 47 0 55 -5 4 -8 19
-5 33 4 15 0 39 -8 54 -8 15 -12 36 -9 47 3 12 -3 26 -16 37 -12 10 -21 27
-21 37 0 24 -19 59 -29 53 -5 -3 -15 13 -24 35 -9 21 -21 38 -28 37 -7 -2 -19
9 -26 25 -8 15 -18 28 -24 28 -5 1 -13 3 -19 4 -5 1 -14 3 -20 4 -5 0 -10 7
-10 14 0 15 -37 40 -49 33 -5 -3 -19 3 -31 14 -13 11 -38 20 -57 20 -18 0 -33
4 -33 9 0 13 -48 19 -59 8 -8 -8 -15 -7 -23 1 -15 15 -43 15 -68 0 -14 -9 -23
-10 -28 -3 -4 6 -16 9 -27 7z m219 -107 c69 -21 123 -55 182 -114 167 -167
165 -441 -5 -612 -168 -167 -434 -171 -606 -8 -89 84 -138 199 -136 319 4 297
281 501 565 415z"/>
<path d="M7826 5790 c-190 -67 -297 -235 -283 -441 11 -171 131 -315 306 -369
141 -44 290 -7 403 98 220 206 166 558 -106 692 -62 31 -80 35 -165 37 -77 3
-108 -1 -155 -17z m105 -17 c1 -17 2 -17 6 0 3 10 14 17 28 17 19 0 23 -4 19
-17 -5 -16 -4 -16 9 0 21 26 53 18 50 -11 -2 -14 1 -21 7 -17 6 3 10 13 10 22
0 10 6 13 16 9 9 -3 20 -6 25 -6 6 0 8 -10 4 -22 -5 -21 -5 -21 7 -6 16 19 48
7 48 -19 0 -12 3 -13 14 -4 18 15 39 -10 29 -35 -6 -17 -5 -17 11 -5 15 12 19
12 33 -2 15 -15 15 -18 -3 -39 l-19 -22 26 16 c24 15 26 15 38 -4 10 -17 9
-23 -6 -40 -18 -21 -18 -21 6 -8 19 10 25 10 32 -1 11 -17 11 -36 2 -42 -5 -2
-3 -2 4 -1 18 4 28 -37 12 -47 -11 -7 -10 -9 4 -9 11 0 17 -8 17 -24 0 -15 -7
-26 -17 -29 -14 -4 -12 -5 5 -6 18 -1 22 -7 22 -31 0 -24 -4 -30 -22 -31 -17
-1 -19 -2 -5 -6 10 -3 17 -14 17 -29 0 -16 -6 -24 -17 -24 -14 0 -15 -2 -5 -9
21 -13 10 -47 -13 -43 -15 2 -17 0 -7 -6 23 -15 10 -47 -17 -44 -20 2 -22 0
-12 -12 9 -11 10 -20 1 -36 -11 -21 -12 -21 -38 -4 l-27 17 19 -22 c18 -20 18
-23 3 -38 -13 -13 -19 -14 -31 -3 -10 8 -16 8 -16 2 0 -6 5 -14 12 -18 8 -5 5
-11 -7 -20 -15 -11 -21 -11 -34 -1 -12 10 -14 9 -9 -4 7 -18 -9 -39 -27 -39
-7 0 -17 10 -23 23 -11 21 -11 21 -9 -8 2 -24 -2 -31 -19 -33 -13 -2 -25 5
-32 20 -12 22 -12 22 -7 -4 5 -25 2 -28 -20 -28 -14 0 -25 5 -25 10 0 6 -4 10
-10 10 -6 0 -9 -6 -8 -12 2 -7 -7 -14 -19 -16 -18 -3 -23 2 -24 20 -1 17 -3
18 -6 6 -3 -11 -14 -18 -30 -18 -22 0 -25 4 -21 25 3 13 1 22 -3 19 -5 -3 -9
-12 -9 -20 0 -10 -8 -14 -22 -12 -15 2 -22 9 -22 21 2 20 -12 23 -19 5 -7 -20
-43 6 -39 28 3 15 1 16 -12 5 -22 -18 -52 4 -35 25 8 10 8 14 1 14 -6 0 -14
-5 -17 -10 -10 -16 -38 18 -31 36 4 11 2 15 -8 11 -8 -3 -20 1 -27 9 -10 13
-10 20 0 35 11 18 10 19 -8 10 -16 -9 -21 -7 -26 9 -4 12 -1 28 7 37 11 14 10
15 -10 9 -19 -6 -22 -4 -22 17 0 14 6 28 13 30 7 4 6 6 -4 6 -16 1 -29 20 -29
42 0 5 10 10 23 10 l22 2 -22 4 c-28 5 -33 53 -6 53 16 0 16 1 0 13 -22 16
-12 58 11 51 16 -5 16 -5 0 5 -24 16 -12 54 15 47 15 -4 17 -2 8 7 -13 13 -14
27 -2 46 8 13 12 13 28 1 15 -12 16 -12 6 0 -20 21 -16 36 18 75 27 30 33 33
52 23 20 -10 21 -10 8 6 -12 14 -12 18 5 30 16 12 20 12 31 -3 11 -14 11 -13
7 6 -4 16 0 23 16 28 15 5 26 2 31 -6 6 -10 9 -8 9 9 0 12 4 22 9 22 5 0 16 3
24 6 10 3 17 -2 20 -13 4 -14 5 -14 6 5 1 17 7 22 26 22 17 0 25 -6 26 -17z"/>
<path d="M7981 5734 c0 -11 3 -14 6 -6 3 7 2 16 -1 19 -3 4 -6 -2 -5 -13z"/>
<path d="M7971 5664 c0 -11 3 -14 6 -6 3 7 2 16 -1 19 -3 4 -6 -2 -5 -13z"/>
<path d="M7951 5660 c0 -8 4 -24 9 -35 5 -13 9 -14 9 -5 0 8 -4 24 -9 35 -5
13 -9 14 -9 5z"/>
<path d="M7660 5640 c0 -5 5 -10 11 -10 5 0 7 5 4 10 -3 6 -8 10 -11 10 -2 0
-4 -4 -4 -10z"/>
<path d="M7821 5574 c13 -15 40 -43 59 -63 21 -22 36 -48 38 -66 2 -29 2 -29
-14 -10 -16 20 -16 20 -10 -1 6 -19 4 -20 -36 -15 -24 4 -59 4 -78 0 -33 -6
-32 -7 15 -9 28 -1 65 -2 82 -2 18 0 30 -5 27 -9 -3 -5 -1 -9 4 -9 10 0 32 38
36 65 2 11 9 19 14 18 6 -2 9 4 6 12 -8 20 -24 19 -24 -2 0 -11 -23 6 -66 50
-64 65 -103 95 -53 41z m114 -114 c3 -5 1 -10 -4 -10 -6 0 -11 5 -11 10 0 6 2
10 4 10 3 0 8 -4 11 -10z"/>
<path d="M7952 5563 c-6 -20 -7 -32 -2 -27 10 10 25 64 18 64 -3 0 -10 -16
-16 -37z"/>
<path d="M8096 5583 c-6 -14 -5 -15 5 -6 7 7 10 15 7 18 -3 3 -9 -2 -12 -12z"/>
<path d="M7970 5546 c0 -9 5 -16 10 -16 6 0 10 4 10 9 0 6 -4 13 -10 16 -5 3
-10 -1 -10 -9z"/>
<path d="M8075 5549 c-4 -6 -5 -12 -2 -15 2 -3 7 2 10 11 7 17 1 20 -8 4z"/>
<path d="M8065 5510 c3 -5 2 -10 -3 -10 -6 0 -13 -8 -16 -17 -6 -15 -5 -15 13
1 18 16 20 36 5 36 -3 0 -2 -4 1 -10z"/>
<path d="M7860 5504 c0 -5 7 -18 15 -28 8 -11 15 -16 15 -10 0 5 -7 18 -15 28
-8 11 -15 16 -15 10z"/>
<path d="M7970 5510 c0 -3 4 -20 9 -38 6 -20 6 -32 0 -32 -5 0 -9 5 -9 11 0 5
-4 7 -10 4 -20 -12 -10 -27 15 -23 16 3 22 1 18 -6 -4 -8 -3 -8 6 0 14 13 33
77 20 69 -5 -4 -9 -15 -9 -26 0 -10 -4 -19 -10 -19 -5 0 -10 8 -10 18 0 15
-19 56 -20 42z"/>
<path d="M7730 5460 c0 -6 7 -10 15 -10 8 0 15 2 15 4 0 2 -7 6 -15 10 -8 3
-15 1 -15 -4z"/>
<path d="M7820 5450 c0 -5 5 -10 11 -10 5 0 7 5 4 10 -3 6 -8 10 -11 10 -2 0
-4 -4 -4 -10z"/>
<path d="M8146 5451 c-4 -5 3 -7 14 -4 23 6 26 13 6 13 -8 0 -17 -4 -20 -9z"/>
<path d="M7858 5433 c7 -3 16 -2 19 1 4 3 -2 6 -13 5 -11 0 -14 -3 -6 -6z"/>
<path d="M8045 5430 c4 -6 -5 -10 -19 -10 -27 0 -34 -14 -15 -26 6 -3 14 -2
18 4 3 6 21 10 39 10 18 -1 37 3 43 9 6 6 -1 8 -22 5 -22 -3 -30 -1 -25 7 4 6
1 11 -9 11 -9 0 -13 -4 -10 -10z"/>
<path d="M7934 5395 c-6 -24 -7 -24 -35 -9 -17 8 -29 10 -29 4 0 -5 8 -10 18
-11 11 0 12 -2 4 -6 -7 -3 -27 -19 -45 -35 -26 -25 -28 -28 -7 -17 13 8 31 21
38 29 10 11 15 12 18 3 4 -10 9 -10 19 0 15 15 78 11 69 -5 -3 -5 -19 -6 -35
-3 -32 7 -38 -5 -14 -25 13 -11 15 -10 9 6 -5 16 -4 16 5 4 14 -19 14 -43 1
-35 -5 3 -10 2 -10 -4 0 -26 20 -18 28 11 6 23 14 32 25 30 19 -3 23 13 6 23
-5 4 -8 12 -6 18 7 20 -12 47 -33 47 -13 0 -22 -9 -26 -25z m46 -11 c0 -8 -7
-14 -15 -14 -15 0 -21 21 -9 33 10 9 24 -2 24 -19z"/>
<path d="M8025 5383 c-32 -18 -29 -20 42 -25 26 -2 39 0 33 6 -5 5 -23 9 -41
8 -29 -1 -30 0 -13 13 25 19 16 18 -21 -2z"/>
<path d="M8060 5345 c0 -1 11 -10 25 -19 19 -13 23 -13 19 -2 -4 12 -44 31
-44 21z"/>
<path d="M7753 5324 c-18 -8 -33 -16 -33 -19 0 -7 60 16 66 26 6 11 7 11 -33
-7z"/>
<path d="M8147 5329 c7 -7 15 -10 18 -7 3 3 -2 9 -12 12 -14 6 -15 5 -6 -5z"/>
<path d="M7894 5321 c3 -5 -1 -11 -9 -15 -8 -3 -15 -11 -15 -18 0 -9 3 -9 11
2 8 11 12 12 16 3 2 -7 9 -13 15 -13 7 0 6 5 -1 14 -9 11 -9 15 1 18 8 3 6 7
-6 11 -9 4 -15 3 -12 -2z"/>
<path d="M7980 5304 c0 -8 5 -12 10 -9 6 4 8 11 5 16 -9 14 -15 11 -15 -7z"/>
<path d="M8180 5316 c0 -2 7 -6 15 -10 8 -3 15 -1 15 4 0 6 -7 10 -15 10 -8 0
-15 -2 -15 -4z"/>
<path d="M7658 5303 c7 -3 16 -2 19 1 4 3 -2 6 -13 5 -11 0 -14 -3 -6 -6z"/>
<path d="M8278 5303 c7 -3 16 -2 19 1 4 3 -2 6 -13 5 -11 0 -14 -3 -6 -6z"/>
<path d="M7885 5260 c-3 -5 -1 -10 4 -10 6 0 11 5 11 10 0 6 -2 10 -4 10 -3 0
-8 -4 -11 -10z"/>
<path d="M8030 5260 c0 -5 5 -10 11 -10 5 0 7 5 4 10 -3 6 -8 10 -11 10 -2 0
-4 -4 -4 -10z"/>
<path d="M7940 5245 c0 -5 5 -17 10 -25 5 -8 10 -10 10 -5 0 6 -5 17 -10 25
-5 8 -10 11 -10 5z"/>
<path d="M8070 5235 c0 -8 4 -15 10 -15 5 0 7 7 4 15 -4 8 -8 15 -10 15 -2 0
-4 -7 -4 -15z"/>
<path d="M7970 5229 c0 -5 5 -7 10 -4 6 3 10 8 10 11 0 2 -4 4 -10 4 -5 0 -10
-5 -10 -11z"/>
<path d="M8096 5197 c3 -10 9 -15 12 -12 3 3 0 11 -7 18 -10 9 -11 8 -5 -6z"/>
<path d="M7719 5173 c-13 -16 -12 -17 4 -4 16 13 21 21 13 21 -2 0 -10 -8 -17
-17z"/>
<path d="M3295 5870 c-60 -4 -118 -10 -127 -15 -17 -7 -18 -38 -18 -455 l0
-447 61 -7 c34 -3 113 -6 175 -6 177 0 268 26 342 99 107 106 86 279 -44 352
-59 34 -65 44 -31 53 60 15 117 107 117 188 -1 125 -90 213 -240 237 -36 6
-78 10 -95 9 -16 -1 -79 -4 -140 -8z m246 -149 c35 -17 59 -61 59 -110 0 -53
-21 -85 -69 -104 -47 -19 -151 -32 -185 -23 l-26 6 0 119 c0 86 4 121 13 125
21 10 181 0 208 -13z m25 -402 c33 -20 64 -72 64 -108 0 -40 -27 -88 -61 -108
-37 -23 -167 -39 -219 -28 l-30 7 0 127 c0 70 3 131 7 135 4 4 53 4 108 0 71
-4 109 -12 131 -25z"/>
<path d="M6335 5871 c-159 -26 -249 -122 -249 -266 0 -145 76 -226 273 -290
78 -25 112 -59 113 -112 1 -60 -22 -89 -84 -108 -68 -20 -119 -19 -200 4 -79
23 -84 20 -87 -59 -2 -65 5 -71 95 -90 90 -20 209 -16 274 9 66 25 134 87 161
145 23 52 25 162 3 214 -28 68 -118 138 -214 167 -141 42 -196 121 -135 193
34 41 97 56 188 48 39 -4 86 -8 102 -9 l30 -2 0 69 c0 68 0 70 -29 77 -48 13
-187 18 -241 10z"/>
<path d="M8723 5869 c-61 -4 -116 -10 -122 -14 -8 -4 -11 -148 -11 -456 l0
-450 83 3 82 3 5 170 5 170 29 3 c51 6 79 -15 130 -101 27 -45 74 -119 103
-164 l53 -83 90 0 c50 0 90 2 90 5 0 3 -26 45 -57 93 -32 48 -60 91 -62 97 -5
11 -62 94 -98 141 -25 34 -24 37 29 63 42 21 93 82 111 131 21 58 22 153 1
214 -29 84 -133 161 -232 172 -96 10 -119 11 -229 3z m234 -148 c52 -24 73
-63 73 -136 0 -112 -41 -147 -177 -153 l-93 -4 0 150 c0 111 3 152 13 155 32
13 144 6 184 -12z"/>
<path d="M4029 5853 c-2 -10 -3 -217 -1 -461 l2 -443 83 3 82 3 0 455 0 455
-81 3 c-72 2 -82 1 -85 -15z"/>
<path d="M4475 5858 c-3 -7 -4 -213 -3 -458 l3 -445 88 -3 87 -3 0 196 0 196
42 -3 42 -3 78 -125 c43 -69 97 -155 119 -192 l40 -68 94 0 c52 0 95 2 95 5 0
5 -140 228 -243 388 -57 89 -60 71 33 212 85 129 180 289 180 304 0 8 -24 11
-87 9 l-87 -3 -100 -166 c-56 -92 -107 -174 -115 -183 -10 -12 -26 -16 -55
-14 l-41 3 0 180 0 180 -83 3 c-60 2 -84 -1 -87 -10z"/>
<path d="M5336 5854 c-7 -19 -6 -797 1 -861 l5 -43 274 0 274 0 0 75 0 75
-190 0 -191 0 3 121 3 122 158 -2 157 -2 0 65 c0 102 8 97 -149 96 -75 -1
-144 -1 -154 0 -16 0 -17 10 -15 108 l3 107 160 2 c88 1 173 2 188 2 l28 1 -3
73 -3 72 -271 3 c-245 2 -272 1 -278 -14z"/>
<path d="M6787 5863 c-4 -3 -7 -39 -7 -80 l0 -73 130 0 130 0 0 -380 0 -381
83 3 82 3 5 380 5 380 123 -4 122 -3 0 81 0 81 -333 0 c-184 0 -337 -3 -340
-7z"/>
<path d="M9484 5856 c-2 -6 -3 -211 -2 -456 l3 -445 275 0 275 0 3 49 c2 27 1
60 -3 73 l-5 23 -190 0 -190 0 0 94 c0 51 3 106 6 122 l5 29 155 -4 155 -3 -3
78 -3 79 -148 1 c-81 0 -151 5 -156 10 -4 5 -6 55 -3 112 l4 102 185 0 184 0
-3 73 -3 72 -268 1 c-190 1 -270 -2 -273 -10z"/>
</g>
</svg>
